ModelForces
version=1
nRows=6
nColumns=103
inDegrees=no

This file contains the forces exerted on a model during a simulation.

A force is a generalized force, meaning that it can be either a force (N) or a torque (Nm).

Units are S.I. units (second, meters, Newtons, ...)
Angles are in degrees.

endheader
time	glut_med1_r	glut_med2_r	glut_med3_r	glut_min1_r	glut_min2_r	glut_min3_r	semimem_r	semiten_r	bifemlh_r	bifemsh_r	sar_r	add_long_r	add_brev_r	add_mag1_r	add_mag2_r	add_mag3_r	tfl_r	pect_r	grac_r	glut_max1_r	glut_max2_r	glut_max3_r	iliacus_r	psoas_r	quad_fem_r	gem_r	peri_r	rect_fem_r	vas_med_r	vas_int_r	vas_lat_r	med_gas_r	lat_gas_r	soleus_r	tib_post_r	flex_dig_r	flex_hal_r	tib_ant_r	per_brev_r	per_long_r	per_tert_r	ext_dig_r	ext_hal_r	glut_med1_l	glut_med2_l	glut_med3_l	glut_min1_l	glut_min2_l	glut_min3_l	semimem_l	semiten_l	bifemlh_l	bifemsh_l	sar_l	add_long_l	add_brev_l	add_mag1_l	add_mag2_l	add_mag3_l	tfl_l	pect_l	grac_l	glut_max1_l	glut_max2_l	glut_max3_l	iliacus_l	psoas_l	quad_fem_l	gem_l	peri_l	rect_fem_l	vas_med_l	vas_int_l	vas_lat_l	med_gas_l	lat_gas_l	soleus_l	tib_post_l	flex_dig_l	flex_hal_l	tib_ant_l	per_brev_l	per_long_l	per_tert_l	ext_dig_l	ext_hal_l	ercspn_r	ercspn_l	intobl_r	intobl_l	extobl_r	extobl_l	aACL_R	pACL_R	aPCL_R	pPCL_R	aMCL_R	aLCL_R	aPCL_L	pPCL_L	aMCL_L	aLCL_L
      0.00400000	      0.00000000	      0.00000000	      0.00000000	      0.00000000	      0.00000000	      0.00000000	      0.00000000	     35.04923370	      0.00000000	     26.70835475	     24.60276438	     26.28940370	     10.75456771	      0.00000000	      0.00000000	      0.00000000	     11.66623870	      0.00000000	     15.46734474	      0.00000000	      0.00000000	      0.00000000	     73.45282623	     71.50210445	      0.00000000	      0.00000000	      0.00000000	     22.48978200	      0.00000000	      0.00000000	      0.00000000	      0.00000000	      0.00000000	      0.00000000	      0.00000000	      0.00000000	      0.00000000	      0.00000000	      0.00000000	      0.00000000	      0.00000000	      0.00000000	     12.79041025	      0.00000000	      0.00000000	      0.00000000	      0.00000000	      0.00000000	      0.00000000	      0.00000000	     13.99152767	      0.00000000	      1.85973980	      3.06215618	     42.75791392	     36.97162826	      0.00000000	      0.00000000	      0.00000000	     15.37904820	      0.00000000	      2.80421257	      0.00000000	      0.00000000	      0.00000000	     77.64947562	     74.18665720	      0.00000000	      0.00000000	      0.00000000	     41.32601131	      0.00000000	      0.00000000	      0.00000000	      0.00000000	      0.00000000	      0.00000000	      0.00000000	      0.00000000	      0.00000000	      0.00000000	      0.00000000	      0.00000000	      0.00000000	      0.00000000	     11.73799362	    133.78188363	    133.78188363	      5.10520047	      5.10520047	     73.12668280	     73.12668280	    -94.61087158	    -74.01007120	      0.00000000	   -327.94500365	      0.00000000	    248.31407566	      0.00000000	   -287.26710756	   -183.26237164	   -196.45883604
      0.00500000	      0.00000000	      0.00000000	      0.00000000	      0.00000000	      0.00000000	      0.00000000	      0.00000000	     33.19190385	      0.00000000	     32.29595045	     30.84622975	     22.68184919	      9.72134554	      0.00000000	      0.00000000	      0.00000000	      8.92296930	      0.00000000	     19.26385500	      0.00000000	      0.00000000	      0.00000000	     70.49379025	     68.94654780	      0.00000000	      0.00000000	      0.00000000	     12.59942153	      0.00000000	      0.00000000	      0.00000000	      0.00000000	      0.00000000	      0.00000000	      0.00000000	      0.00000000	      0.00000000	      0.00000000	      0.00000000	      0.00000000	      0.00000000	      0.00000000	     12.61177528	      0.00000000	      0.00000000	      0.00000000	      0.00000000	      0.00000000	      0.00000000	      0.00000000	     13.28742307	      0.00000000	      4.14895847	      3.98179431	     41.88274339	     42.94199067	      0.00000000	      0.00000000	      0.00000000	     15.10549330	      0.00000000	      3.37295420	      0.00000000	      0.00000000	      0.00000000	     75.46264175	     72.13405525	      0.00000000	      0.00000000	      0.00000000	     37.57891382	      0.00000000	      0.00000000	      0.00000000	      0.00000000	      0.00000000	      0.00000000	      0.00000000	      0.00000000	      0.00000000	      0.00000000	      0.00000000	      0.00000000	      0.00000000	      0.00000000	     11.16055142	    129.49541030	    129.49541030	     10.18816631	     10.18816631	     71.11861446	     71.11861446	    -89.47493560	    -99.07522892	      0.00000000	   -268.17182900	      0.00000000	    169.18520275	      0.00000000	   -397.54537714	    -79.96481943	    -97.20619436
      0.00600000	      0.00000000	      0.00000000	      0.00000000	      0.00000000	      0.00000000	      0.00000000	      0.00000000	     33.68479601	      0.00000000	     40.68450376	     37.07266803	     19.86922251	      9.12979116	      0.00000000	      0.00000000	      0.00000000	      7.41478199	      0.00000000	     23.53843254	      0.00000000	      0.00000000	      0.00000000	     68.41933700	     66.98641879	      0.00000000	      0.00000000	      0.00000000	      6.35064247	      0.00000000	      0.00000000	      0.00000000	      0.00000000	      0.00000000	      0.00000000	      0.00000000	      0.00000000	      0.00000000	      0.00000000	      0.00000000	      0.00000000	      0.00000000	      1.64157709	     12.41045295	      0.00000000	      0.00000000	      0.00000000	      0.00000000	      0.00000000	      0.00000000	      0.00000000	     13.61595588	      0.00000000	      7.15685842	      5.02999206	     40.82703766	      5.89861812	      0.00000000	      0.00000000	      0.00000000	     15.51815767	      0.00000000	      4.15665239	      0.00000000	      0.00000000	      0.00000000	     73.68103423	     70.38587153	      0.00000000	      0.00000000	      0.00000000	     36.76464606	      0.00000000	      0.00000000	      0.00000000	      0.00000000	      0.00000000	      0.00000000	      0.00000000	      0.00000000	      0.00000000	      0.00000000	      0.00000000	      0.00000000	      0.00000000	      1.00738012	     10.56944381	    126.16502411	    126.16502411	     14.44820039	     14.44820039	     69.44439837	     69.44439837	    -72.15059785	   -108.75936296	      0.00000000	   -200.61984212	      0.00000000	     99.57482125	      0.00000000	   -386.82593119	     -3.48789102	    -16.33640349
      0.00700000	      0.00000000	      0.00000000	      0.00000000	      0.00000000	      0.00000000	      0.00000000	      0.00000000	     35.76534944	      0.00000000	     50.50000350	     42.95523103	     17.75451045	      8.79216599	      0.00000000	      0.00000000	      0.00000000	      6.51793222	      0.00000000	     27.83568738	      0.00000000	      0.00000000	      0.00000000	     67.05262620	     65.50637007	      0.00000000	      0.00000000	      0.00000000	      2.44977605	      0.00000000	      0.00000000	      0.00000000	      0.00000000	      0.00000000	      0.00000000	      0.00000000	      0.00000000	      0.00000000	      0.00000000	      0.00000000	      0.00000000	      0.00000000	      3.26322947	     12.19688312	      0.00000000	      0.00000000	      0.00000000	      0.00000000	      0.00000000	      0.00000000	      0.00000000	     14.45808532	      0.00000000	     10.37831002	      6.01827052	     39.69580548	     20.66062427	      0.00000000	      0.00000000	      0.00000000	     16.27952477	      0.00000000	      4.96809859	      0.00000000	      0.00000000	      0.00000000	     72.13809534	     68.83192210	      0.00000000	      0.00000000	      0.00000000	     37.61086993	      0.00000000	      0.00000000	      0.00000000	      0.00000000	      0.00000000	      0.00000000	      0.00000000	      0.00000000	      0.00000000	      0.00000000	      0.00000000	      0.00000000	      0.00000000	      2.22905738	      9.99848136	    123.45364952	    123.45364952	     18.04383541	     18.04383541	     68.00585110	     68.00585110	    -48.10142754	   -107.32093657	      0.00000000	   -136.69772845	      0.00000000	     33.08020117	      0.00000000	   -333.87179038	     43.15694443	     34.80486531
      0.00755698	      0.00000000	      0.00000000	      0.00000000	      0.00000000	      0.00000000	      0.00000000	      0.00000000	     37.41969162	      0.00000000	     56.11855341	     46.00087355	     16.83333260	      8.67909428	      0.00000000	      0.00000000	      0.00000000	      6.15853185	      0.00000000	     30.11645419	      0.00000000	      0.00000000	      0.00000000	     66.53622079	     64.84964820	      0.00000000	      0.00000000	      0.00000000	      0.96662349	      0.00000000	      0.00000000	      0.00000000	      0.00000000	      0.00000000	      0.00000000	      0.00000000	      0.00000000	      0.00000000	      0.00000000	      0.00000000	      0.00000000	      0.00000000	      4.12525581	     12.07541015	      0.00000000	      0.00000000	      0.00000000	      0.00000000	      0.00000000	      0.00000000	      0.00000000	     15.01011349	      0.00000000	     12.08472917	      6.48053496	     39.04560307	     25.47763049	      0.00000000	      0.00000000	      0.00000000	     16.76565387	      0.00000000	      5.37564265	      0.00000000	      0.00000000	      0.00000000	     71.33998225	     68.02216268	      0.00000000	      0.00000000	      0.00000000	     38.45289893	      0.00000000	      0.00000000	      0.00000000	      0.00000000	      0.00000000	      0.00000000	      0.00000000	      0.00000000	      0.00000000	      0.00000000	      0.00000000	      0.00000000	      0.00000000	      2.84732872	      9.69882287	    122.13452457	    122.13452457	     19.80056103	     19.80056103	     67.28357077	     67.28357077	    -33.59638201	   -102.69111957	      0.00000000	      0.00000000	      0.00000000	     -5.82259917	      0.00000000	   -301.87260007	     58.62074015	     51.57361117
      0.00800000	      0.00000000	      0.00000000	      0.00000000	      0.00000000	      0.00000000	      0.00000000	      0.00000000	     38.86957621	      0.00000000	     60.18064575	     48.12663915	     16.23159262	      8.66771327	      0.00000000	      0.00000000	      0.00000000	      5.91173815	      0.00000000	     31.76189004	      0.00000000	      0.00000000	      0.00000000	     66.22543211	     64.39674882	      0.00000000	      0.00000000	      0.00000000	      0.02158387	      0.00000000	      0.00000000	      0.00000000	      0.00000000	      0.00000000	      0.00000000	      0.00000000	      0.00000000	      0.00000000	      0.00000000	      0.00000000	      0.00000000	      0.00000000	      4.79489544	     11.97968366	      0.00000000	      0.00000000	      0.00000000	      0.00000000	      0.00000000	      0.00000000	      0.00000000	     15.45047881	      0.00000000	     13.33359231	      6.78567894	     38.52027116	     26.94288596	      0.00000000	      0.00000000	      0.00000000	     17.15434495	      0.00000000	      5.66006695	      0.00000000	      0.00000000	      0.00000000	     70.72448870	     67.39830395	      0.00000000	      0.00000000	      0.00000000	     39.20796108	      0.00000000	      0.00000000	      0.00000000	      0.00000000	      0.00000000	      0.00000000	      0.00000000	      0.00000000	      0.00000000	      0.00000000	      0.00000000	      0.00000000	      0.00000000	      3.31229963	      9.47222851	    121.16139511	    121.16139511	     21.08582098	     21.08582098	     66.74271512	     66.74271512	    -22.84541121	    -96.57166490	      0.00000000	      0.00000000	      0.00000000	    -44.24457434	      0.00000000	   -277.69575226	     66.77114675	     60.01155032
